<svg width="1929" height="1075" viewBox="0 0 1929 1075" fill="none" xmlns="http://www.w3.org/2000/svg">
<mask id="mask0_267_1241" style="mask-type:alpha" maskUnits="userSpaceOnUse" x="0" y="0" width="1929" height="1075">
<rect width="1929" height="1075" fill="#D9D9D9"/>
</mask>
<g mask="url(#mask0_267_1241)">
<g filter="url(#filter0_d_267_1241)">
<path fill-rule="evenodd" clip-rule="evenodd" d="M1308.59 0.500532L1308.52 1075L1551.02 1075L1873.52 1075C1924.95 836.5 1846.23 691.881 1851.2 534.589C1857.16 346.138 1990.35 154.596 1893.51 0.499581L1308.59 0.500532Z" fill="#7AA6C8" fill-opacity="0.2" shape-rendering="crispEdges"/>
</g>
<g filter="url(#filter1_d_267_1241)">
<path fill-rule="evenodd" clip-rule="evenodd" d="M1258.02 -0.000844836L1249.52 1075L1791.02 1075C1791.02 1075 1690.32 890.952 1705.34 740.235C1723.33 559.662 1878.11 372.922 1863.57 211.999C1845 6.6916 1797.52 1.35766 1797.52 -0.000542251L1622.02 0.500004L1258.02 -0.000844836Z" fill="#2768CA"/>
</g>
<g filter="url(#filter2_d_267_1241)">
<path fill-rule="evenodd" clip-rule="evenodd" d="M1261.51 3.14157e-05L1259.52 1075L1760.52 1075C1740.43 895.71 1875.72 676.048 1878.55 509.821C1877.78 332.112 1789.4 293.414 1850.02 0.000142367L1261.51 3.14157e-05Z" fill="#0750AF" fill-opacity="0.63" shape-rendering="crispEdges"/>
</g>
<g filter="url(#filter3_d_267_1241)">
<path fill-rule="evenodd" clip-rule="evenodd" d="M620.423 0.500532L620.5 1075L378 1075L55.5 1075C4.06213 836.5 82.7876 691.881 77.8134 534.589C71.8539 346.138 -61.3313 154.596 35.505 0.499581L620.423 0.500532Z" fill="#7AA6C8" fill-opacity="0.2" shape-rendering="crispEdges"/>
</g>
<g filter="url(#filter4_d_267_1241)">
<path fill-rule="evenodd" clip-rule="evenodd" d="M670.999 -0.000844836L679.5 1075L138 1075C138 1075 238.699 890.952 223.679 740.235C205.682 559.662 50.9022 372.922 65.4505 211.999C84.0116 6.6916 131.5 1.35766 131.499 -0.000542251L307 0.500004L670.999 -0.000844836Z" fill="#2768CA"/>
</g>
<g filter="url(#filter5_d_267_1241)">
<path fill-rule="evenodd" clip-rule="evenodd" d="M667.504 0.499055L669.5 1075L168.5 1075C188.585 895.793 53.2925 676.234 50.4647 510.084C51.2337 332.457 139.613 293.776 79.0002 0.499166L667.504 0.499055Z" fill="#0750AF" fill-opacity="0.63" shape-rendering="crispEdges"/>
</g>
<rect x="663" width="600" height="1075" fill="#2768CA"/>
<rect x="663" width="600" height="1075" fill="#0750AF" fill-opacity="0.63"/>
</g>
<defs>
<filter id="filter0_d_267_1241" x="1304.52" y="0.5" width="628.172" height="1082.5" filterUnits="userSpaceOnUse" color-interpolation-filters="sRGB">
<feFlood flood-opacity="0" result="BackgroundImageFix"/>
<feColorMatrix in="SourceAlpha" type="matrix" values="0 0 0 0 0 0 0 0 0 0 0 0 0 0 0 0 0 0 127 0" result="hardAlpha"/>
<feOffset dy="4"/>
<feGaussianBlur stdDeviation="2"/>
<feComposite in2="hardAlpha" operator="out"/>
<feColorMatrix type="matrix" values="0 0 0 0 0 0 0 0 0 0 0 0 0 0 0 0 0 0 0.25 0"/>
<feBlend mode="normal" in2="BackgroundImageFix" result="effect1_dropShadow_267_1241"/>
<feBlend mode="normal" in="BackgroundImageFix" in2="effect1_dropShadow_267_1241" result="BackgroundImageFix"/>
<feBlend mode="normal" in="SourceGraphic" in2="BackgroundImageFix" result="shape"/>
</filter>
<filter id="filter1_d_267_1241" x="1245.52" y="-0.000976562" width="623.016" height="1083" filterUnits="userSpaceOnUse" color-interpolation-filters="sRGB">
<feFlood flood-opacity="0" result="BackgroundImageFix"/>
<feColorMatrix in="SourceAlpha" type="matrix" values="0 0 0 0 0 0 0 0 0 0 0 0 0 0 0 0 0 0 127 0" result="hardAlpha"/>
<feOffset dy="4"/>
<feGaussianBlur stdDeviation="2"/>
<feComposite in2="hardAlpha" operator="out"/>
<feColorMatrix type="matrix" values="0 0 0 0 0 0 0 0 0 0 0 0 0 0 0 0 0 0 0.25 0"/>
<feBlend mode="normal" in2="BackgroundImageFix" result="effect1_dropShadow_267_1241"/>
<feBlend mode="normal" in="SourceGraphic" in2="effect1_dropShadow_267_1241" result="shape"/>
</filter>
<filter id="filter2_d_267_1241" x="1255.52" y="0" width="627.039" height="1083" filterUnits="userSpaceOnUse" color-interpolation-filters="sRGB">
<feFlood flood-opacity="0" result="BackgroundImageFix"/>
<feColorMatrix in="SourceAlpha" type="matrix" values="0 0 0 0 0 0 0 0 0 0 0 0 0 0 0 0 0 0 127 0" result="hardAlpha"/>
<feOffset dy="4"/>
<feGaussianBlur stdDeviation="2"/>
<feComposite in2="hardAlpha" operator="out"/>
<feColorMatrix type="matrix" values="0 0 0 0 0 0 0 0 0 0 0 0 0 0 0 0 0 0 0.25 0"/>
<feBlend mode="normal" in2="BackgroundImageFix" result="effect1_dropShadow_267_1241"/>
<feBlend mode="normal" in="SourceGraphic" in2="effect1_dropShadow_267_1241" result="shape"/>
</filter>
<filter id="filter3_d_267_1241" x="-3.67188" y="0.5" width="628.172" height="1082.5" filterUnits="userSpaceOnUse" color-interpolation-filters="sRGB">
<feFlood flood-opacity="0" result="BackgroundImageFix"/>
<feColorMatrix in="SourceAlpha" type="matrix" values="0 0 0 0 0 0 0 0 0 0 0 0 0 0 0 0 0 0 127 0" result="hardAlpha"/>
<feOffset dy="4"/>
<feGaussianBlur stdDeviation="2"/>
<feComposite in2="hardAlpha" operator="out"/>
<feColorMatrix type="matrix" values="0 0 0 0 0 0 0 0 0 0 0 0 0 0 0 0 0 0 0.25 0"/>
<feBlend mode="normal" in2="BackgroundImageFix" result="effect1_dropShadow_267_1241"/>
<feBlend mode="normal" in="BackgroundImageFix" in2="effect1_dropShadow_267_1241" result="BackgroundImageFix"/>
<feBlend mode="normal" in="SourceGraphic" in2="BackgroundImageFix" result="shape"/>
</filter>
<filter id="filter4_d_267_1241" x="60.4844" y="-0.000976562" width="623.016" height="1083" filterUnits="userSpaceOnUse" color-interpolation-filters="sRGB">
<feFlood flood-opacity="0" result="BackgroundImageFix"/>
<feColorMatrix in="SourceAlpha" type="matrix" values="0 0 0 0 0 0 0 0 0 0 0 0 0 0 0 0 0 0 127 0" result="hardAlpha"/>
<feOffset dy="4"/>
<feGaussianBlur stdDeviation="2"/>
<feComposite in2="hardAlpha" operator="out"/>
<feColorMatrix type="matrix" values="0 0 0 0 0 0 0 0 0 0 0 0 0 0 0 0 0 0 0.25 0"/>
<feBlend mode="normal" in2="BackgroundImageFix" result="effect1_dropShadow_267_1241"/>
<feBlend mode="normal" in="SourceGraphic" in2="effect1_dropShadow_267_1241" result="shape"/>
</filter>
<filter id="filter5_d_267_1241" x="46.4609" y="0.499023" width="627.039" height="1082.5" filterUnits="userSpaceOnUse" color-interpolation-filters="sRGB">
<feFlood flood-opacity="0" result="BackgroundImageFix"/>
<feColorMatrix in="SourceAlpha" type="matrix" values="0 0 0 0 0 0 0 0 0 0 0 0 0 0 0 0 0 0 127 0" result="hardAlpha"/>
<feOffset dy="4"/>
<feGaussianBlur stdDeviation="2"/>
<feComposite in2="hardAlpha" operator="out"/>
<feColorMatrix type="matrix" values="0 0 0 0 0 0 0 0 0 0 0 0 0 0 0 0 0 0 0.25 0"/>
<feBlend mode="normal" in2="BackgroundImageFix" result="effect1_dropShadow_267_1241"/>
<feBlend mode="normal" in="SourceGraphic" in2="effect1_dropShadow_267_1241" result="shape"/>
</filter>
</defs>
</svg>
